<svg xmlns="http://www.w3.org/2000/svg" viewBox="0 0 1138.75 1193.75" style="opacity: 0.03"><defs><pattern id="a" height="128.169" width="62.76" patternUnits="userSpaceOnUse" patternTransform="translate(-60.78 372.5)"><path d="M0 0h62.76v128.169H0V0z" fill="#fff"/><path d="M-31.379-64.084H31.38V64.085h-62.759V-64.084z" fill="#fff"/><path d="M0 0l-.441-4.562h-1.014L-1.897 0a6.584 6.584 0 0 1-5.562-5.562l4.563-.442-.001-1.014-4.562-.443a6.584 6.584 0 0 1 5.563-5.562l.441 4.564h1.014L0-13.023a6.587 6.587 0 0 1 5.562 5.562l-4.56.443v1.014l4.56.442A6.586 6.586 0 0 1 0 0m1.436 3.633l1.648-.536a.511.511 0 0 0 .328-.646L2.881.818A8.264 8.264 0 0 0 4.838-.604L6.229.406a.509.509 0 0 0 .712-.113l1.02-1.4a.516.516 0 0 0-.111-.717l-1.391-1.01a8.309 8.309 0 0 0 .748-2.299h1.715a.513.513 0 0 0 .514-.512v-1.734a.512.512 0 0 0-.514-.51H7.207a8.294 8.294 0 0 0-.748-2.3l1.391-1.008a.515.515 0 0 0 .111-.715l-1.02-1.403a.51.51 0 0 0-.712-.115l-1.391 1.01a8.364 8.364 0 0 0-1.957-1.422l.531-1.633a.508.508 0 0 0-.326-.643l-1.65-.537a.51.51 0 0 0-.643.329L.26-14.691a8.164 8.164 0 0 0-1.209-.088c-.408 0-.815.029-1.209.088l-.53-1.635a.511.511 0 0 0-.645-.328l-1.648.536a.512.512 0 0 0-.33.643l.533 1.633a8.31 8.31 0 0 0-1.956 1.424l-1.39-1.012a.512.512 0 0 0-.715.115l-1.02 1.403a.511.511 0 0 0 .114.713l1.39 1.01a8.162 8.162 0 0 0-.747 2.3h-1.718a.51.51 0 0 0-.512.51v1.734c0 .283.229.512.512.512h1.718c.136.813.391 1.586.747 2.299l-1.39 1.01a.516.516 0 0 0-.114.717l1.02 1.4a.512.512 0 0 0 .715.113l1.39-1.01A8.238 8.238 0 0 0-4.778.818l-.533 1.633a.513.513 0 0 0 .33.645l1.649.537a.513.513 0 0 0 .644-.33l.53-1.633c.394.059.801.088 1.209.088.412 0 .814-.029 1.209-.088l.533 1.635a.512.512 0 0 0 .643.328" fill="#231f20" transform="translate(45.584 138.686)"/><path d="M0 0a8.471 8.471 0 1 0-8.471 8.47A8.47 8.47 0 0 0 0 0m12.312 4.886l-1.097 3.376a1.047 1.047 0 0 1-1.319.672L6.545 7.849a16.99 16.99 0 0 1-2.914 4.005l2.074 2.849c.338.47.232 1.127-.236 1.466l-2.874 2.086a1.046 1.046 0 0 1-1.46-.232l-2.069-2.845a16.86 16.86 0 0 1-4.711 1.528v3.521c0 .578-.473 1.049-1.046 1.049h-3.556c-.582 0-1.05-.468-1.05-1.049v-3.521a16.84 16.84 0 0 1-4.711-1.528l-2.068 2.845c-.339.468-.994.57-1.463.232l-2.876-2.086a1.05 1.05 0 0 1-.229-1.466l2.07-2.849a16.899 16.899 0 0 1-2.916-4.008l-3.344 1.088a1.05 1.05 0 0 1-1.324-.672l-1.094-3.376a1.048 1.048 0 0 1 .67-1.324l3.345-1.085A17.775 17.775 0 0 1-25.416 0c0-.843.065-1.668.179-2.477l-3.345-1.09a1.042 1.042 0 0 1-.67-1.32l1.094-3.379a1.052 1.052 0 0 1 1.324-.672l3.344 1.088a16.988 16.988 0 0 1 2.916-4.004l-2.07-2.852a1.043 1.043 0 0 1 .229-1.463l2.876-2.086a1.04 1.04 0 0 1 1.463.23l2.068 2.846a16.877 16.877 0 0 1 4.711-1.531v-3.519c0-.58.468-1.045 1.05-1.045h3.556c.573 0 1.046.465 1.046 1.045v3.519c1.663.28 3.247.804 4.711 1.531l2.069-2.85c.34-.468.993-.569 1.466-.226l2.868 2.086c.468.339.574.996.234 1.463l-2.072 2.852A16.924 16.924 0 0 1 6.545-7.85l3.351-1.088a1.05 1.05 0 0 1 1.319.672l1.097 3.379a1.046 1.046 0 0 1-.673 1.32l-3.35 1.09a16.716 16.716 0 0 1 0 4.954l3.35 1.085c.552.183.852.773.673 1.324" fill="#231f20" transform="translate(81.775 113.056)"/><path d="M0 0a4.637 4.637 0 0 0-4.635-4.636A4.638 4.638 0 0 0-9.271 0a4.632 4.632 0 0 0 4.636 4.634A4.634 4.634 0 0 0 0 0m6.732 2.673L6.135 4.52a.575.575 0 0 1-.725.369l-1.83-.592a9.3 9.3 0 0 1-1.594 2.186l1.135 1.563a.576.576 0 0 1-.129.8L1.418 9.988a.574.574 0 0 1-.801-.129L-.512 8.305c-.8.4-1.665.685-2.58.835v1.926a.575.575 0 0 1-.574.577h-1.943a.574.574 0 0 1-.572-.577V9.14a9.028 9.028 0 0 1-2.578-.835l-1.135 1.554a.575.575 0 0 1-.801.131l-1.57-1.144a.573.573 0 0 1-.129-.8l1.139-1.563a9.181 9.181 0 0 1-1.599-2.186l-1.832.592a.575.575 0 0 1-.723-.369l-.599-1.847a.574.574 0 0 1 .369-.724l1.831-.592a9.07 9.07 0 0 1-.1-1.357c0-.461.033-.912.1-1.357l-1.831-.596a.57.57 0 0 1-.369-.719l.599-1.851a.576.576 0 0 1 .723-.366l1.832.595a9.194 9.194 0 0 1 1.599-2.192l-1.139-1.561a.577.577 0 0 1 .129-.799l1.57-1.147a.577.577 0 0 1 .801.133l1.135 1.557a9.098 9.098 0 0 1 2.578-.839v-1.924c0-.319.256-.575.572-.575h1.943c.318 0 .574.256.574.575v1.924c.915.153 1.78.438 2.578.839L.617-9.865a.576.576 0 0 1 .801-.123l1.574 1.14c.254.19.313.545.129.801L1.986-6.486A9.314 9.314 0 0 1 3.58-4.294l1.83-.595a.578.578 0 0 1 .725.366l.597 1.851a.566.566 0 0 1-.365.719l-1.836.6A8.5 8.5 0 0 1 4.635 0c0 .461-.033.914-.104 1.355l1.836.594a.57.57 0 0 1 .365.724" fill="#231f20" transform="translate(45.193 84.317)"/><path d="M0 0a4.637 4.637 0 0 0-4.635-4.636A4.638 4.638 0 0 0-9.271 0a4.632 4.632 0 0 0 4.636 4.634A4.634 4.634 0 0 0 0 0m.617 0a5.253 5.253 0 0 1-5.252 5.254A5.258 5.258 0 0 1-9.894 0 5.255 5.255 0 1 1 .617 0" fill="#231f20" transform="translate(45.193 84.317)"/><path d="M0 0l-1.687-3.421-3.778-.549 2.733-2.663-.645-3.761L0-8.618l3.377-1.776-.645 3.761L5.465-3.97l-3.776.549L0 0z" fill="#231f20" transform="translate(67.201 89.695)"/><path d="M0 0a4.496 4.496 0 1 1 8.992 0A4.496 4.496 0 0 1 0 0z" fill="none" stroke="#000" stroke-dasharray="2" transform="translate(38.111 106.23)"/><path d="M0 0a8.472 8.472 0 1 0-16.943 0A8.472 8.472 0 0 0 0 0m12.311 4.886l-1.097 3.376a1.046 1.046 0 0 1-1.319.672L6.544 7.849a16.99 16.99 0 0 1-2.914 4.005l2.075 2.849c.337.47.232 1.127-.236 1.466l-2.875 2.086a1.046 1.046 0 0 1-1.46-.232l-2.069-2.845a16.85 16.85 0 0 1-4.711 1.528v3.521c0 .578-.473 1.049-1.046 1.049h-3.556c-.582 0-1.05-.468-1.05-1.049v-3.521a16.833 16.833 0 0 1-4.71-1.528l-2.069 2.845c-.338.468-.993.57-1.462.232l-2.876-2.086a1.05 1.05 0 0 1-.23-1.466l2.07-2.849a16.899 16.899 0 0 1-2.916-4.008l-3.343 1.088a1.05 1.05 0 0 1-1.324-.672l-1.095-3.376a1.048 1.048 0 0 1 .67-1.324l3.345-1.085A17.624 17.624 0 0 1-25.416 0c0-.843.063-1.668.178-2.477l-3.345-1.09a1.042 1.042 0 0 1-.67-1.32l1.095-3.379a1.052 1.052 0 0 1 1.324-.672l3.343 1.088a16.988 16.988 0 0 1 2.916-4.004l-2.07-2.852a1.043 1.043 0 0 1 .23-1.463l2.876-2.086a1.04 1.04 0 0 1 1.462.23l2.069 2.846a16.87 16.87 0 0 1 4.71-1.531v-3.519c0-.58.468-1.045 1.05-1.045h3.556c.573 0 1.046.465 1.046 1.045v3.519c1.663.28 3.248.804 4.711 1.531l2.069-2.85c.34-.468.993-.569 1.466-.226l2.869 2.086c.468.339.573.996.233 1.463L3.63-11.854A16.924 16.924 0 0 1 6.544-7.85l3.351-1.088a1.049 1.049 0 0 1 1.319.672l1.097 3.379c.18.55-.12 1.141-.672 1.32l-3.35 1.09a16.767 16.767 0 0 1 0 4.954l3.35 1.085c.552.183.852.773.672 1.324" fill="#231f20" transform="translate(19.017 113.056)"/><path d="M0 0a8.472 8.472 0 1 0-16.943 0A8.472 8.472 0 0 0 0 0m1.131 0c0 5.302-4.298 9.603-9.602 9.599A9.596 9.596 0 0 1-18.07 0c0-5.306 4.294-9.603 9.599-9.603 5.304 0 9.602 4.299 9.602 9.603" fill="#231f20" transform="translate(19.017 113.056)"/><path d="M0 0l.442-4.562h1.014L1.898 0A6.585 6.585 0 0 0 7.46-5.562l-4.564-.442.002-1.014 4.562-.443a6.584 6.584 0 0 0-5.562-5.562l-.443 4.564H.442L0-13.023a6.587 6.587 0 0 0-5.562 5.562l4.561.443v1.014l-4.561.442A6.586 6.586 0 0 0 0 0m-1.436 3.633l-1.648-.536a.511.511 0 0 1-.328-.646l.531-1.633A8.264 8.264 0 0 1-4.838-.604L-6.229.406a.509.509 0 0 1-.712-.113l-1.02-1.4a.516.516 0 0 1 .112-.717l1.39-1.01a8.309 8.309 0 0 1-.748-2.299h-1.715a.513.513 0 0 1-.514-.512v-1.734c0-.282.231-.51.514-.51h1.715a8.294 8.294 0 0 1 .748-2.3l-1.39-1.008a.514.514 0 0 1-.112-.715l1.02-1.403a.51.51 0 0 1 .712-.115l1.391 1.01a8.364 8.364 0 0 1 1.957-1.422l-.531-1.633a.508.508 0 0 1 .327-.643l1.649-.537a.51.51 0 0 1 .643.329l.533 1.635a8.164 8.164 0 0 1 1.209-.088c.409 0 .815.029 1.209.088l.53-1.635a.512.512 0 0 1 .645-.328l1.649.536a.512.512 0 0 1 .329.643l-.532 1.633a8.35 8.35 0 0 1 1.956 1.424l1.39-1.012a.512.512 0 0 1 .715.115l1.019 1.403a.51.51 0 0 1-.113.713l-1.39 1.01c.355.714.611 1.486.747 2.3h1.718a.51.51 0 0 1 .512.51v1.734a.512.512 0 0 1-.512.512H9.103a8.188 8.188 0 0 1-.747 2.299l1.39 1.01a.515.515 0 0 1 .113.717L8.84.293a.513.513 0 0 1-.715.113l-1.39-1.01A8.279 8.279 0 0 1 4.779.818l.532 1.633a.512.512 0 0 1-.329.645l-1.649.537a.514.514 0 0 1-.645-.33l-.53-1.633c-.394.059-.8.088-1.209.088-.412 0-.813-.029-1.209-.088l-.533 1.635a.512.512 0 0 1-.643.328" fill="#231f20" transform="translate(17.175 74.602)"/><path d="M0 0a1.518 1.518 0 1 0 0-3.037A1.518 1.518 0 0 0 0 0m0 1.012a2.532 2.532 0 1 1 .001-5.063A2.532 2.532 0 0 1 0 1.012" fill="#231f20" transform="translate(18.125 69.61)"/><path d="M0 0l-1.689-3.421-3.776-.549 2.733-2.663-.645-3.761L0-8.618l3.377-1.776-.645 3.761L5.464-3.97l-3.776.549L0 0z" fill="#231f20" transform="translate(4.442 89.695)"/><path d="M0 0a8.472 8.472 0 1 1 16.943 0A8.472 8.472 0 0 1 0 0m-12.311 4.886l1.097 3.376c.181.552.773.852 1.319.672l3.351-1.085a17.017 17.017 0 0 0 2.914 4.006l-2.075 2.848a1.055 1.055 0 0 0 .236 1.466l2.874 2.086a1.047 1.047 0 0 0 1.461-.232l2.069-2.845a16.85 16.85 0 0 0 4.711 1.528v3.521a1.05 1.05 0 0 0 1.046 1.049h3.555c.582 0 1.051-.468 1.051-1.049v-3.521a16.85 16.85 0 0 0 4.711-1.528l2.068 2.845c.338.468.993.57 1.462.232l2.876-2.086c.469-.344.57-.996.231-1.466l-2.071-2.848a16.924 16.924 0 0 0 2.916-4.009l3.344 1.088c.553.18 1.141-.12 1.323-.672l1.095-3.376a1.047 1.047 0 0 0-.67-1.324l-3.346-1.085c.116-.81.179-1.638.179-2.477 0-.843-.063-1.668-.179-2.477l3.346-1.09c.551-.179.854-.77.67-1.32l-1.095-3.379a1.05 1.05 0 0 0-1.323-.672L23.491-7.85a16.988 16.988 0 0 0-2.916-4.004l2.071-2.852a1.044 1.044 0 0 0-.231-1.463l-2.876-2.086a1.038 1.038 0 0 0-1.462.23l-2.068 2.846a16.888 16.888 0 0 0-4.711-1.531v-3.518c0-.581-.469-1.046-1.051-1.046H6.692c-.574 0-1.046.465-1.046 1.046v3.518c-1.663.28-3.248.804-4.711 1.531l-2.069-2.85a1.047 1.047 0 0 0-1.467-.226l-2.868 2.086a1.049 1.049 0 0 0-.233 1.463l2.072 2.852A16.924 16.924 0 0 0-6.544-7.85l-3.351-1.088a1.049 1.049 0 0 0-1.319.672l-1.097 3.379c-.18.55.12 1.141.672 1.32l3.35 1.09a16.767 16.767 0 0 0 0 4.954l-3.35 1.085a1.05 1.05 0 0 0-.672 1.324" fill="#231f20" transform="translate(43.743 48.971)"/><path d="M0 0a8.472 8.472 0 1 1 16.943 0A8.472 8.472 0 0 1 0 0m-1.132 0c0 5.302 4.299 9.603 9.603 9.599A9.596 9.596 0 0 0 18.07 0c0-5.306-4.294-9.603-9.599-9.603A9.602 9.602 0 0 0-1.132 0" fill="#231f20" transform="translate(43.743 48.971)"/><path d="M0 0l-.441-4.562h-1.014L-1.897 0a6.584 6.584 0 0 1-5.562-5.562l4.563-.442-.001-1.014-4.562-.443a6.584 6.584 0 0 1 5.563-5.562l.441 4.564h1.014L0-13.023a6.587 6.587 0 0 1 5.562 5.562l-4.56.443v1.014l4.56.442A6.586 6.586 0 0 1 0 0m1.436 3.633l1.648-.536a.511.511 0 0 0 .328-.646L2.881.818A8.264 8.264 0 0 0 4.838-.604L6.229.406a.509.509 0 0 0 .712-.113l1.02-1.4a.516.516 0 0 0-.111-.717l-1.391-1.01a8.309 8.309 0 0 0 .748-2.299h1.715a.513.513 0 0 0 .514-.512v-1.734a.512.512 0 0 0-.514-.51H7.207a8.294 8.294 0 0 0-.748-2.3l1.391-1.008a.515.515 0 0 0 .111-.715l-1.02-1.403a.51.51 0 0 0-.712-.115l-1.391 1.01a8.364 8.364 0 0 0-1.957-1.422l.531-1.633a.508.508 0 0 0-.326-.643l-1.65-.537a.51.51 0 0 0-.643.329L.26-14.691a8.164 8.164 0 0 0-1.209-.088c-.408 0-.815.029-1.209.088l-.53-1.635a.511.511 0 0 0-.645-.328l-1.648.536a.512.512 0 0 0-.33.643l.533 1.633a8.31 8.31 0 0 0-1.956 1.424l-1.39-1.012a.512.512 0 0 0-.715.115l-1.02 1.403a.511.511 0 0 0 .114.713l1.39 1.01a8.162 8.162 0 0 0-.747 2.3h-1.718a.51.51 0 0 0-.512.51v1.734c0 .283.229.512.512.512h1.718c.136.813.391 1.586.747 2.299l-1.39 1.01a.516.516 0 0 0-.114.717l1.02 1.4a.512.512 0 0 0 .715.113l1.39-1.01A8.238 8.238 0 0 0-4.778.818l-.533 1.633a.513.513 0 0 0 .33.645l1.649.537a.513.513 0 0 0 .644-.33l.53-1.633c.394.059.801.088 1.209.088.412 0 .814-.029 1.209-.088l.533 1.635a.512.512 0 0 0 .643.328" fill="#231f20" transform="translate(45.584 10.518)"/><path d="M0 0a1.518 1.518 0 1 1 0-3.037A1.518 1.518 0 0 1 0 0m0 1.012a2.532 2.532 0 1 0-.001-5.063A2.532 2.532 0 0 0 0 1.012" fill="#231f20" transform="translate(44.635 5.525)"/><path d="M0 0l1.689-3.421 3.776-.549-2.733-2.663.645-3.76L0-8.618l-3.377-1.775.645 3.76-2.732 2.663 3.775.549L0 0z" fill="#231f20" transform="translate(58.317 25.61)"/><path d="M0 0a8.471 8.471 0 1 0-8.471 8.47A8.47 8.47 0 0 0 0 0m12.312 4.886l-1.097 3.376a1.047 1.047 0 0 1-1.319.672L6.545 7.849a16.99 16.99 0 0 1-2.914 4.005l2.074 2.849c.338.47.232 1.127-.236 1.466l-2.874 2.086a1.046 1.046 0 0 1-1.46-.232l-2.069-2.845a16.86 16.86 0 0 1-4.711 1.528v3.521c0 .578-.473 1.049-1.046 1.049h-3.556c-.582 0-1.05-.468-1.05-1.049v-3.521a16.84 16.84 0 0 1-4.711-1.528l-2.068 2.845c-.339.468-.994.57-1.463.232l-2.876-2.086a1.05 1.05 0 0 1-.229-1.466l2.07-2.849a16.899 16.899 0 0 1-2.916-4.008l-3.344 1.088a1.05 1.05 0 0 1-1.324-.672l-1.094-3.376a1.05 1.05 0 0 1 .67-1.325l3.345-1.084A17.775 17.775 0 0 1-25.416 0c0-.843.065-1.668.179-2.477l-3.345-1.09a1.042 1.042 0 0 1-.67-1.32l1.094-3.379a1.052 1.052 0 0 1 1.324-.672l3.344 1.088a17.014 17.014 0 0 1 2.916-4.005l-2.07-2.851a1.043 1.043 0 0 1 .229-1.463l2.876-2.086a1.04 1.04 0 0 1 1.463.23l2.068 2.846a16.877 16.877 0 0 1 4.711-1.531v-3.519c0-.58.468-1.045 1.05-1.045h3.556c.573 0 1.046.465 1.046 1.045v3.519c1.663.28 3.247.804 4.711 1.531l2.069-2.85c.34-.469.993-.569 1.466-.226l2.868 2.086c.468.339.574.996.234 1.463l-2.072 2.851A16.95 16.95 0 0 1 6.545-7.85l3.351-1.088a1.05 1.05 0 0 1 1.319.672l1.097 3.379a1.046 1.046 0 0 1-.673 1.32l-3.35 1.09a16.716 16.716 0 0 1 0 4.954l3.35 1.084c.552.184.852.774.673 1.325" fill="#231f20" transform="translate(81.775 -15.113)"/><path d="M0 0a8.472 8.472 0 1 1 16.943 0A8.472 8.472 0 0 1 0 0m-12.311 4.886l1.097 3.376c.181.552.773.852 1.318.672l3.352-1.085a17.017 17.017 0 0 0 2.914 4.006l-2.075 2.848a1.053 1.053 0 0 0 .236 1.466l2.875 2.086a1.046 1.046 0 0 0 1.46-.232l2.069-2.845a16.85 16.85 0 0 0 4.711 1.528v3.521c0 .578.473 1.049 1.046 1.049h3.556c.582 0 1.05-.468 1.05-1.049v-3.521a16.833 16.833 0 0 0 4.71-1.528l2.069 2.845c.338.468.993.57 1.462.232l2.876-2.086a1.05 1.05 0 0 0 .23-1.466l-2.07-2.848a16.924 16.924 0 0 0 2.916-4.009l3.343 1.088a1.05 1.05 0 0 0 1.324-.672l1.095-3.376a1.048 1.048 0 0 0-.671-1.324l-3.344-1.085c.115-.81.178-1.638.178-2.477 0-.843-.063-1.668-.178-2.477l3.344-1.09c.551-.179.854-.77.671-1.32l-1.095-3.379a1.052 1.052 0 0 0-1.324-.672L23.491-7.85a16.988 16.988 0 0 0-2.916-4.004l2.07-2.852a1.043 1.043 0 0 0-.23-1.463l-2.876-2.086a1.038 1.038 0 0 0-1.462.23l-2.069 2.846a16.87 16.87 0 0 0-4.71-1.531v-3.518c0-.581-.468-1.046-1.05-1.046H6.692c-.573 0-1.046.465-1.046 1.046v3.518c-1.663.28-3.248.804-4.711 1.531l-2.069-2.85a1.046 1.046 0 0 0-1.466-.226l-2.869 2.086a1.047 1.047 0 0 0-.233 1.463l2.072 2.852A16.924 16.924 0 0 0-6.544-7.85l-3.352-1.088a1.048 1.048 0 0 0-1.318.672l-1.097 3.379c-.18.55.12 1.141.672 1.32l3.35 1.09a16.767 16.767 0 0 0 0 4.954l-3.35 1.085a1.05 1.05 0 0 0-.672 1.324" fill="#231f20" transform="translate(-19.016 48.971)"/><path d="M0 0a4.637 4.637 0 0 1 4.634-4.636A4.638 4.638 0 0 1 9.271 0a4.632 4.632 0 0 1-4.637 4.634A4.634 4.634 0 0 1 0 0m-6.733 2.673l.598 1.847a.574.574 0 0 0 .724.369l1.831-.592c.424.804.96 1.543 1.594 2.186l-1.135 1.563a.578.578 0 0 0 .128.8l1.575 1.142a.572.572 0 0 0 .8-.129l1.13-1.554c.8.4 1.665.685 2.58.835v1.926c0 .319.255.577.574.577h1.943a.574.574 0 0 0 .572-.577V9.14a9.018 9.018 0 0 0 2.578-.835l1.135 1.554a.575.575 0 0 0 .801.131l1.57-1.144a.573.573 0 0 0 .129-.8l-1.139-1.563a9.181 9.181 0 0 0 1.599-2.186l1.832.592a.575.575 0 0 0 .723-.369l.599-1.847a.574.574 0 0 0-.369-.724l-1.831-.592c.067-.443.1-.896.1-1.357 0-.461-.033-.912-.1-1.357l1.831-.596a.57.57 0 0 0 .369-.719l-.599-1.851a.576.576 0 0 0-.723-.366l-1.832.595a9.194 9.194 0 0 0-1.599-2.192l1.139-1.561a.577.577 0 0 0-.129-.799l-1.57-1.147a.577.577 0 0 0-.801.133L8.759-8.303a9.087 9.087 0 0 0-2.578-.839v-1.924a.573.573 0 0 0-.572-.575H3.666a.572.572 0 0 0-.574.575v1.924a9.056 9.056 0 0 0-2.578.839L-.618-9.865a.575.575 0 0 0-.8-.123l-1.575 1.14a.58.58 0 0 0-.128.801l1.135 1.561A9.285 9.285 0 0 0-3.58-4.294l-1.831-.595a.578.578 0 0 0-.724.366l-.598 1.851c-.1.299.065.621.366.719l1.835.6A8.74 8.74 0 0 0-4.635 0c0 .461.034.914.103 1.355l-1.835.594a.572.572 0 0 0-.366.724" fill="#231f20" transform="translate(17.566 20.232)"/><path d="M0 0a4.637 4.637 0 0 1 4.634-4.636A4.638 4.638 0 0 1 9.271 0a4.632 4.632 0 0 1-4.637 4.634A4.634 4.634 0 0 1 0 0m-.618 0a5.253 5.253 0 0 0 5.252 5.254A5.258 5.258 0 0 0 9.894 0a5.263 5.263 0 0 0-5.26-5.254A5.256 5.256 0 0 0-.618 0" fill="#231f20" transform="translate(17.566 20.232)"/><path d="M0 0l1.688-3.421 3.777-.549-2.733-2.663.645-3.76L0-8.618l-3.377-1.775.645 3.76-2.732 2.663 3.776.549L0 0z" fill="#231f20" transform="translate(-4.442 25.61)"/><path d="M0 0a4.496 4.496 0 1 0-8.992 0A4.496 4.496 0 0 0 0 0z" fill="none" stroke="#000" stroke-dasharray="2" transform="translate(24.648 42.145)"/><path d="M0 0a8.472 8.472 0 1 0-16.943 0A8.472 8.472 0 0 0 0 0m12.311 4.886l-1.097 3.376a1.046 1.046 0 0 1-1.319.672L6.544 7.849a16.99 16.99 0 0 1-2.914 4.005l2.075 2.849c.337.47.232 1.127-.236 1.466l-2.875 2.086a1.046 1.046 0 0 1-1.46-.232l-2.069-2.845a16.85 16.85 0 0 1-4.711 1.528v3.521c0 .578-.473 1.049-1.046 1.049h-3.556c-.582 0-1.05-.468-1.05-1.049v-3.521a16.833 16.833 0 0 1-4.71-1.528l-2.069 2.845c-.338.468-.993.57-1.462.232l-2.876-2.086a1.05 1.05 0 0 1-.23-1.466l2.07-2.849a16.899 16.899 0 0 1-2.916-4.008l-3.343 1.088a1.05 1.05 0 0 1-1.324-.672l-1.095-3.376a1.05 1.05 0 0 1 .67-1.325l3.345-1.084A17.624 17.624 0 0 1-25.416 0c0-.843.063-1.668.178-2.477l-3.345-1.09a1.042 1.042 0 0 1-.67-1.32l1.095-3.379a1.052 1.052 0 0 1 1.324-.672l3.343 1.088a17.014 17.014 0 0 1 2.916-4.005l-2.07-2.851a1.043 1.043 0 0 1 .23-1.463l2.876-2.086a1.038 1.038 0 0 1 1.462.23l2.069 2.846a16.87 16.87 0 0 1 4.71-1.531v-3.519c0-.58.468-1.045 1.05-1.045h3.556c.573 0 1.046.465 1.046 1.045v3.519c1.663.28 3.248.804 4.711 1.531l2.069-2.85c.34-.469.993-.569 1.466-.226l2.869 2.086c.468.339.573.996.233 1.463L3.63-11.855A16.95 16.95 0 0 1 6.544-7.85l3.351-1.088a1.049 1.049 0 0 1 1.319.672l1.097 3.379c.18.55-.12 1.141-.672 1.32l-3.35 1.09a16.767 16.767 0 0 1 0 4.954l3.35 1.084c.552.184.852.774.672 1.325" fill="#231f20" transform="translate(19.017 -15.113)"/></pattern></defs><path d="M0 0h911v955H0V0z" fill="url(#a)" transform="matrix(1.25 0 0 -1.25 0 1193.75)"/></svg>