<svg xmlns="http://www.w3.org/2000/svg" viewBox="0 0 512 512"><path fill="#FFF" d="M493.297 159.694c-12.477-30.878-31.231-59.828-56.199-84.792-24.964-24.967-53.914-43.722-84.792-56.199C321.424 6.222 288.616 0 255.822 0c-32.748 0-65.497 6.249-96.315 18.744-30.814 12.49-59.695 31.242-84.607 56.158-24.915 24.911-43.668 53.792-56.158 84.607C6.249 190.325 0 223.073 0 255.821c0 32.794 6.222 65.602 18.701 96.485 12.477 30.878 31.231 59.829 56.199 84.793 24.964 24.967 53.914 43.722 84.792 56.199 30.882 12.48 63.69 18.701 96.484 18.701 32.748 0 65.497-6.249 96.315-18.743 30.814-12.49 59.695-31.242 84.607-56.158 24.916-24.912 43.669-53.793 56.159-84.607 12.494-30.817 18.743-63.565 18.744-96.315-.001-32.792-6.223-65.601-18.704-96.482zm-31.684 179.967c-10.824 26.684-27.021 51.649-48.661 73.292-21.643 21.64-46.608 37.837-73.291 48.659-26.679 10.818-55.078 16.241-83.484 16.241-28.477 0-56.947-5.406-83.688-16.214-26.744-10.813-51.76-27.007-73.441-48.685-21.679-21.682-37.874-46.697-48.685-73.442-10.808-26.741-16.214-55.212-16.213-83.689 0-28.406 5.424-56.804 16.241-83.483 10.821-26.683 27.018-51.648 48.659-73.291 21.643-21.64 46.608-37.837 73.292-48.659 26.679-10.818 55.078-16.241 83.484-16.241 28.477 0 56.947 5.405 83.688 16.214 26.744 10.813 51.76 27.007 73.441 48.685 21.679 21.682 37.873 46.697 48.685 73.441 10.808 26.741 16.214 55.211 16.214 83.688 0 28.405-5.423 56.803-16.241 83.484z"/><path fill="#FFF" d="M362.32 149.681c-6.524-6.524-17.102-6.524-23.627 0L149.68 338.694c-6.524 6.525-6.524 17.102 0 23.627 6.525 6.525 17.102 6.525 23.627 0l189.014-189.014c6.523-6.524 6.523-17.103-.001-23.626zM246.76 137.073a50.036 50.036 0 0 0-11.009-16.589 50.031 50.031 0 0 0-16.589-11.009c-6.048-2.451-12.453-3.671-18.852-3.671s-12.804 1.22-18.852 3.671a50.036 50.036 0 0 0-16.589 11.009 50.021 50.021 0 0 0-11.009 16.589c-2.451 6.048-3.671 12.453-3.671 18.852s1.22 12.804 3.671 18.852a50.052 50.052 0 0 0 11.009 16.589 50.031 50.031 0 0 0 16.589 11.009c6.048 2.451 12.453 3.671 18.852 3.671s12.804-1.22 18.852-3.671a50.036 50.036 0 0 0 16.589-11.009 50.031 50.031 0 0 0 11.009-16.589c2.451-6.048 3.671-12.453 3.671-18.852s-1.219-12.804-3.671-18.852zm-30.965 25.147c-.814 2-2.009 3.853-3.671 5.519a16.582 16.582 0 0 1-5.518 3.671 16.755 16.755 0 0 1-6.295 1.222c-2.153 0-4.298-.412-6.295-1.222-2-.814-3.853-2.009-5.518-3.671a16.582 16.582 0 0 1-3.671-5.518 16.755 16.755 0 0 1-1.222-6.295 16.582 16.582 0 0 1 4.892-11.814 16.57 16.57 0 0 1 5.519-3.671 16.755 16.755 0 0 1 6.295-1.222c2.153 0 4.298.412 6.295 1.222 2 .814 3.853 2.009 5.518 3.671a16.582 16.582 0 0 1 3.671 5.518 16.755 16.755 0 0 1 1.222 6.295c0 2.152-.412 4.298-1.222 6.295zM369.275 326.251a50.052 50.052 0 0 0-11.009-16.589 50.021 50.021 0 0 0-16.589-11.009c-6.048-2.451-12.453-3.671-18.852-3.671s-12.804 1.22-18.852 3.671a50.036 50.036 0 0 0-16.589 11.009 50.021 50.021 0 0 0-11.009 16.589c-2.451 6.048-3.671 12.453-3.671 18.852s1.22 12.804 3.671 18.852a50.036 50.036 0 0 0 11.009 16.589 50.031 50.031 0 0 0 16.589 11.009c6.048 2.451 12.453 3.671 18.852 3.671s12.804-1.22 18.852-3.671a50.036 50.036 0 0 0 16.589-11.009 50.031 50.031 0 0 0 11.009-16.589c2.451-6.048 3.671-12.453 3.671-18.852s-1.219-12.804-3.671-18.852zm-30.964 25.145c-.814 2-2.009 3.853-3.671 5.518a16.582 16.582 0 0 1-5.518 3.671 16.755 16.755 0 0 1-6.295 1.222c-2.153 0-4.298-.412-6.295-1.222-2-.814-3.853-2.009-5.518-3.671a16.582 16.582 0 0 1-3.671-5.518 16.736 16.736 0 0 1-1.222-6.295c0-2.153.412-4.298 1.222-6.295.814-2 2.009-3.853 3.671-5.518a16.575 16.575 0 0 1 5.519-3.671 16.755 16.755 0 0 1 6.295-1.222c2.153 0 4.298.412 6.295 1.222a16.618 16.618 0 0 1 5.517 3.671 16.582 16.582 0 0 1 3.671 5.518 16.755 16.755 0 0 1 1.222 6.295c0 2.153-.412 4.299-1.222 6.295z"/></svg>